<svg xmlns="http://www.w3.org/2000/svg" width="1024" height="1024" viewBox="0 0 1024 1024" role="img" aria-label="Douyin Laike data automation icon">
  <defs>
    <linearGradient id="bg" x1="164" y1="112" x2="860" y2="912" gradientUnits="userSpaceOnUse">
      <stop offset="0" stop-color="#111318"/>
      <stop offset="1" stop-color="#050608"/>
    </linearGradient>
    <linearGradient id="cyan" x1="268" y1="222" x2="628" y2="862" gradientUnits="userSpaceOnUse">
      <stop offset="0" stop-color="#35f5ff"/>
      <stop offset="1" stop-color="#10a9ff"/>
    </linearGradient>
    <linearGradient id="red" x1="456" y1="182" x2="820" y2="792" gradientUnits="userSpaceOnUse">
      <stop offset="0" stop-color="#ff496e"/>
      <stop offset="1" stop-color="#ff1f4f"/>
    </linearGradient>
    <filter id="softShadow" x="-20%" y="-20%" width="140%" height="140%">
      <feDropShadow dx="0" dy="28" stdDeviation="32" flood-color="#000000" flood-opacity="0.38"/>
    </filter>
    <filter id="glowCyan" x="-40%" y="-40%" width="180%" height="180%">
      <feDropShadow dx="0" dy="0" stdDeviation="20" flood-color="#19dfff" flood-opacity="0.52"/>
    </filter>
    <filter id="glowRed" x="-40%" y="-40%" width="180%" height="180%">
      <feDropShadow dx="0" dy="0" stdDeviation="20" flood-color="#ff335f" flood-opacity="0.48"/>
    </filter>
  </defs>

  <rect x="64" y="64" width="896" height="896" rx="212" fill="url(#bg)"/>
  <path d="M246 774h532" stroke="#242a33" stroke-width="34" stroke-linecap="round"/>

  <g filter="url(#softShadow)">
    <rect x="268" y="548" width="110" height="226" rx="40" fill="url(#cyan)" filter="url(#glowCyan)"/>
    <rect x="457" y="394" width="110" height="380" rx="40" fill="#f5f7fb"/>
    <rect x="646" y="286" width="110" height="488" rx="40" fill="url(#red)" filter="url(#glowRed)"/>
  </g>

  <path d="M263 333c56-52 121-78 197-78 121 0 208 71 244 171" fill="none" stroke="#35f5ff" stroke-width="42" stroke-linecap="round"/>
  <path d="M326 255h-92v92" fill="none" stroke="#35f5ff" stroke-width="42" stroke-linecap="round" stroke-linejoin="round"/>

  <circle cx="704" cy="312" r="92" fill="#111318" stroke="#f5f7fb" stroke-width="28"/>
  <path d="M663 312l29 31 60-70" fill="none" stroke="#ff496e" stroke-width="34" stroke-linecap="round" stroke-linejoin="round"/>

  <path d="M282 846h460" stroke="#ffffff" stroke-width="22" stroke-linecap="round" opacity="0.14"/>
</svg>
